<svg width="0" height="0" class="hidden">

 <symbol fill="none" xmlns="http://www.w3.org/2000/svg" viewBox="0 0 22 22" id="clock">
    <path d="M10.989 0C4.917 0 0 4.928 0 11s4.917 11 10.989 11C17.072 22 22 17.072 22 11S17.072 0 10.989 0zM11 19.8A8.798 8.798 0 012.2 11c0-4.862 3.938-8.8 8.8-8.8s8.8 3.938 8.8 8.8-3.938 8.8-8.8 8.8zm.55-14.3H9.9v6.6l5.775 3.465.825-1.353-4.95-2.937V5.5z" fill="#000"></path>
  </symbol>


    <symbol  xmlns="http://www.w3.org/2000/svg" viewBox="0 0 21 21" id="search">
        <path d="M8.13681 1.28311C9.4926 1.28187 10.8183 1.68278 11.9462 2.43512C13.0741 3.18746 13.9536 4.25743 14.4733 5.50967C14.993 6.76191 15.1296 8.14015 14.8658 9.47005C14.6021 10.7999 13.9498 12.0217 12.9916 12.9809C12.0333 13.94 10.8121 14.5934 9.48246 14.8583C8.1528 15.1233 6.77443 14.9879 5.52172 14.4694C4.26901 13.9508 3.19824 13.0724 2.44487 11.9452C1.69149 10.8179 1.28937 9.4926 1.28937 8.1368C1.29759 6.32271 2.02146 4.58516 3.30365 3.3018C4.58583 2.01844 6.32272 1.29299 8.13681 1.28311ZM8.13681 0C6.5275 0 4.95433 0.477215 3.61624 1.3713C2.27815 2.26538 1.23524 3.53618 0.619381 5.02298C0.00352566 6.50979 -0.15761 8.14583 0.15635 9.72421C0.47031 11.3026 1.24527 12.7524 2.38322 13.8904C3.52117 15.0283 4.97101 15.8033 6.5494 16.1173C8.12778 16.4312 9.76382 16.2701 11.2506 15.6542C12.7374 15.0384 14.0082 13.9955 14.9023 12.6574C15.7964 11.3193 16.2736 9.74611 16.2736 8.1368C16.2736 5.97879 15.4163 3.90916 13.8904 2.38321C12.3644 0.857268 10.2948 0 8.13681 0Z" ></path>
        <path d="M19.8225 18.9588L15.2096 14.3145L14.3208 15.197L18.9337 19.8413C18.9917 19.8996 19.0606 19.946 19.1364 19.9778C19.2123 20.0095 19.2937 20.026 19.3759 20.0263C19.4582 20.0266 19.5397 20.0107 19.6157 19.9794C19.6918 19.9482 19.761 19.9024 19.8194 19.8444C19.8778 19.7865 19.9241 19.7176 19.9559 19.6417C19.9876 19.5658 20.0041 19.4845 20.0044 19.4022C20.0047 19.32 19.9888 19.2385 19.9576 19.1624C19.9264 19.0863 19.8805 19.0171 19.8225 18.9588Z" ></path>
    </symbol>

<symbol  id="burger" xmlns="http://www.w3.org/2000/svg" xmlns:xlink="http://www.w3.org/1999/xlink" aria-hidden="true" role="img"  preserveAspectRatio="xMidYMid meet" viewBox="0 0 24 24">
<path d="M4 6h16v2H4zm0 5h16v2H4zm0 5h16v2H4z" />
</symbol>


<symbol   id="close" xmlns="http://www.w3.org/2000/svg" xmlns:xlink="http://www.w3.org/1999/xlink" aria-hidden="true" role="img"  preserveAspectRatio="xMidYMid meet" viewBox="0 0 24 24">
<path d="M15.59 7L12 10.59L8.41 7L7 8.41L10.59 12L7 15.59L8.41 17L12 13.41L15.59 17L17 15.59L13.41 12L17 8.41L15.59 7z" />
</symbol>

    <symbol  xmlns="http://www.w3.org/2000/svg" viewBox="0 0 14 24" id="arrow-left">
        <path d="M13.0607 13.0607C13.6464 12.4749 13.6464 11.5251 13.0607 10.9393L3.51472 1.3934C2.92893 0.807611 1.97919 0.807611 1.3934 1.3934C0.807612 1.97918 0.807612 2.92893 1.3934 3.51472L9.87868 12L1.3934 20.4853C0.807611 21.0711 0.807611 22.0208 1.3934 22.6066C1.97918 23.1924 2.92893 23.1924 3.51472 22.6066L13.0607 13.0607ZM11 13.5L12 13.5L12 10.5L11 10.5L11 13.5Z" ></path>
    </symbol>


    <symbol  xmlns="http://www.w3.org/2000/svg" viewBox="0 0 14 24" id="arrow-right">
        <path d="M0.93934 10.9393C0.353553 11.5251 0.353553 12.4749 0.93934 13.0607L10.4853 22.6066C11.0711 23.1924 12.0208 23.1924 12.6066 22.6066C13.1924 22.0208 13.1924 21.0711 12.6066 20.4853L4.12132 12L12.6066 3.51472C13.1924 2.92893 13.1924 1.97919 12.6066 1.3934C12.0208 0.807612 11.0711 0.807612 10.4853 1.3934L0.93934 10.9393ZM2 13.5L3 13.5L3 10.5L2 10.5L2 13.5Z"></path>
    </symbol>


    <symbol  xmlns="http://www.w3.org/2000/svg" viewBox="0 0 14 24" id="img-vector">
            <path xmlns="http://www.w3.org/2000/svg" fill="red" d="M6.49825 3.16487C4.65267 3.16487 3.16319 4.65438 3.16319 6.5C3.16319 8.34562 4.65267 9.83513 6.49825 9.83513C8.34384 9.83513 9.83332 8.34562 9.83332 6.5C9.83332 4.65438 8.34384 3.16487 6.49825 3.16487ZM6.49825 8.66759C5.30472 8.66759 4.3307 7.69356 4.3307 6.5C4.3307 5.30644 5.30472 4.33241 6.49825 4.33241C7.69179 4.33241 8.6658 5.30644 8.6658 6.5C8.6658 7.69356 7.69179 8.66759 6.49825 8.66759ZM9.96991 2.251C9.539 2.251 9.19102 2.59899 9.19102 3.02991C9.19102 3.46082 9.539 3.80881 9.96991 3.80881C10.4008 3.80881 10.7488 3.46245 10.7488 3.02991C10.7489 2.92758 10.7289 2.82624 10.6898 2.73168C10.6507 2.63712 10.5933 2.55121 10.521 2.47885C10.4486 2.4065 10.3627 2.34913 10.2681 2.31003C10.1736 2.27094 10.0722 2.25088 9.96991 2.251ZM12.9993 6.5C12.9993 5.60239 13.0074 4.71292 12.957 3.81694C12.9066 2.77623 12.6692 1.85261 11.9082 1.0916C11.1456 0.328955 10.2236 0.0931713 9.18289 0.0427622C8.2853 -0.00764684 7.39584 0.000483674 6.49988 0.000483674C5.60229 0.000483674 4.71283 -0.00764684 3.81687 0.0427622C2.77618 0.0931713 1.85258 0.330582 1.09158 1.0916C0.328949 1.85424 0.0931695 2.77623 0.0427614 3.81694C-0.0076467 4.71454 0.000483665 5.60402 0.000483665 6.5C0.000483665 7.39598 -0.0076467 8.28708 0.0427614 9.18306C0.0931695 10.2238 0.330576 11.1474 1.09158 11.9084C1.8542 12.671 2.77618 12.9068 3.81687 12.9572C4.71446 13.0076 5.60391 12.9995 6.49988 12.9995C7.39747 12.9995 8.28693 13.0076 9.18289 12.9572C10.2236 12.9068 11.1472 12.6694 11.9082 11.9084C12.6708 11.1458 12.9066 10.2238 12.957 9.18306C13.009 8.28708 12.9993 7.39761 12.9993 6.5ZM11.5683 10.3343C11.4496 10.6303 11.3065 10.8514 11.0773 11.0791C10.848 11.3084 10.6285 11.4515 10.3325 11.5702C9.47721 11.91 7.44625 11.8336 6.49825 11.8336C5.55025 11.8336 3.51767 11.91 2.66236 11.5718C2.36641 11.4531 2.14527 11.31 1.91762 11.0807C1.68834 10.8514 1.54525 10.6319 1.42655 10.336C1.08832 9.47901 1.16475 7.44802 1.16475 6.5C1.16475 5.55198 1.08832 3.51936 1.42655 2.66403C1.54525 2.36808 1.68834 2.14693 1.91762 1.91928C2.14689 1.69163 2.36641 1.5469 2.66236 1.4282C3.51767 1.08997 5.55025 1.1664 6.49825 1.1664C7.44625 1.1664 9.47884 1.08997 10.3341 1.4282C10.6301 1.5469 10.8512 1.69 11.0789 1.91928C11.3082 2.14856 11.4513 2.36808 11.57 2.66403C11.9082 3.51936 11.8318 5.55198 11.8318 6.5C11.8318 7.44802 11.9082 9.47901 11.5683 10.3343Z"/>
    </symbol>



<symbol fill="none" xmlns="http://www.w3.org/2000/svg" viewBox="0 0 19 12" id="arrow-down">
        <path d="M17 2L9.45714 8.99968L2 2"  stroke-width="3"></path>
</symbol>


        <symbol  xmlns="http://www.w3.org/2000/svg" viewBox="0 0 13 13" id="Vector">
            <path d="M6.49825 3.16487C4.65267 3.16487 3.16319 4.65438 3.16319 6.5C3.16319 8.34562 4.65267 9.83513 6.49825 9.83513C8.34384 9.83513 9.83332 8.34562 9.83332 6.5C9.83332 4.65438 8.34384 3.16487 6.49825 3.16487ZM6.49825 8.66759C5.30472 8.66759 4.3307 7.69356 4.3307 6.5C4.3307 5.30644 5.30472 4.33241 6.49825 4.33241C7.69179 4.33241 8.6658 5.30644 8.6658 6.5C8.6658 7.69356 7.69179 8.66759 6.49825 8.66759ZM9.96991 2.251C9.539 2.251 9.19102 2.59899 9.19102 3.02991C9.19102 3.46082 9.539 3.80881 9.96991 3.80881C10.4008 3.80881 10.7488 3.46245 10.7488 3.02991C10.7489 2.92758 10.7289 2.82624 10.6898 2.73168C10.6507 2.63712 10.5933 2.55121 10.521 2.47885C10.4486 2.4065 10.3627 2.34913 10.2681 2.31003C10.1736 2.27094 10.0722 2.25088 9.96991 2.251ZM12.9993 6.5C12.9993 5.60239 13.0074 4.71292 12.957 3.81694C12.9066 2.77623 12.6692 1.85261 11.9082 1.0916C11.1456 0.328955 10.2236 0.0931713 9.18289 0.0427622C8.2853 -0.00764684 7.39584 0.000483674 6.49988 0.000483674C5.60229 0.000483674 4.71283 -0.00764684 3.81687 0.0427622C2.77618 0.0931713 1.85258 0.330582 1.09158 1.0916C0.328949 1.85424 0.0931695 2.77623 0.0427614 3.81694C-0.0076467 4.71454 0.000483665 5.60402 0.000483665 6.5C0.000483665 7.39598 -0.0076467 8.28708 0.0427614 9.18306C0.0931695 10.2238 0.330576 11.1474 1.09158 11.9084C1.8542 12.671 2.77618 12.9068 3.81687 12.9572C4.71446 13.0076 5.60391 12.9995 6.49988 12.9995C7.39747 12.9995 8.28693 13.0076 9.18289 12.9572C10.2236 12.9068 11.1472 12.6694 11.9082 11.9084C12.6708 11.1458 12.9066 10.2238 12.957 9.18306C13.009 8.28708 12.9993 7.39761 12.9993 6.5ZM11.5683 10.3343C11.4496 10.6303 11.3065 10.8514 11.0773 11.0791C10.848 11.3084 10.6285 11.4515 10.3325 11.5702C9.47721 11.91 7.44625 11.8336 6.49825 11.8336C5.55025 11.8336 3.51767 11.91 2.66236 11.5718C2.36641 11.4531 2.14527 11.31 1.91762 11.0807C1.68834 10.8514 1.54525 10.6319 1.42655 10.336C1.08832 9.47901 1.16475 7.44802 1.16475 6.5C1.16475 5.55198 1.08832 3.51936 1.42655 2.66403C1.54525 2.36808 1.68834 2.14693 1.91762 1.91928C2.14689 1.69163 2.36641 1.5469 2.66236 1.4282C3.51767 1.08997 5.55025 1.1664 6.49825 1.1664C7.44625 1.1664 9.47884 1.08997 10.3341 1.4282C10.6301 1.5469 10.8512 1.69 11.0789 1.91928C11.3082 2.14856 11.4513 2.36808 11.57 2.66403C11.9082 3.51936 11.8318 5.55198 11.8318 6.5C11.8318 7.44802 11.9082 9.47901 11.5683 10.3343Z" ></path>
        </symbol>






</svg>