<svg width="105" height="327" viewBox="0 0 105 327" fill="none" xmlns="http://www.w3.org/2000/svg">
<path d="M-17.5 7C-15.5669 7 -14 5.43298 -14 3.5C-14 1.56702 -15.5669 0 -17.5 0C-19.4331 0 -21 1.56702 -21 3.5C-21 5.43298 -19.4331 7 -17.5 7Z" fill="#C0D3FB"/>
<path d="M-17.5 23C-15.5669 23 -14 21.433 -14 19.5C-14 17.567 -15.5669 16 -17.5 16C-19.4331 16 -21 17.567 -21 19.5C-21 21.433 -19.4331 23 -17.5 23Z" fill="#C0D3FB"/>
<path d="M-14 35.5C-14 37.433 -15.5669 39 -17.5 39C-19.4331 39 -21 37.433 -21 35.5C-21 33.567 -19.4331 32 -17.5 32C-15.5669 32 -14 33.567 -14 35.5Z" fill="#C0D3FB"/>
<path d="M-17.5 55C-15.5669 55 -14 53.433 -14 51.5C-14 49.567 -15.5669 48 -17.5 48C-19.4331 48 -21 49.567 -21 51.5C-21 53.433 -19.4331 55 -17.5 55Z" fill="#C0D3FB"/>
<path d="M-14 67.5C-14 69.433 -15.5669 71 -17.5 71C-19.4331 71 -21 69.433 -21 67.5C-21 65.567 -19.4331 64 -17.5 64C-15.5669 64 -14 65.567 -14 67.5Z" fill="#C0D3FB"/>
<path d="M-17.5 87C-15.5669 87 -14 85.433 -14 83.5C-14 81.567 -15.5669 80 -17.5 80C-19.4331 80 -21 81.567 -21 83.5C-21 85.433 -19.4331 87 -17.5 87Z" fill="#C0D3FB"/>
<path d="M3 3.5C3 5.43298 1.43311 7 -0.5 7C-2.43311 7 -4 5.43298 -4 3.5C-4 1.56702 -2.43311 0 -0.5 0C1.43311 0 3 1.56702 3 3.5Z" fill="#C0D3FB"/>
<path d="M-0.5 23C1.43311 23 3 21.433 3 19.5C3 17.567 1.43311 16 -0.5 16C-2.43311 16 -4 17.567 -4 19.5C-4 21.433 -2.43311 23 -0.5 23Z" fill="#C0D3FB"/>
<path d="M3 35.5C3 37.433 1.43311 39 -0.5 39C-2.43311 39 -4 37.433 -4 35.5C-4 33.567 -2.43311 32 -0.5 32C1.43311 32 3 33.567 3 35.5Z" fill="#C0D3FB"/>
<path d="M-0.5 55C1.43311 55 3 53.433 3 51.5C3 49.567 1.43311 48 -0.5 48C-2.43311 48 -4 49.567 -4 51.5C-4 53.433 -2.43311 55 -0.5 55Z" fill="#C0D3FB"/>
<path d="M3 67.5C3 69.433 1.43311 71 -0.5 71C-2.43311 71 -4 69.433 -4 67.5C-4 65.567 -2.43311 64 -0.5 64C1.43311 64 3 65.567 3 67.5Z" fill="#C0D3FB"/>
<path d="M-0.5 87C1.43311 87 3 85.433 3 83.5C3 81.567 1.43311 80 -0.5 80C-2.43311 80 -4 81.567 -4 83.5C-4 85.433 -2.43311 87 -0.5 87Z" fill="#C0D3FB"/>
<path d="M20 3.5C20 5.43298 18.4331 7 16.5 7C14.5669 7 13 5.43298 13 3.5C13 1.56702 14.5669 0 16.5 0C18.4331 0 20 1.56702 20 3.5Z" fill="#C0D3FB"/>
<path d="M16.5 23C18.4331 23 20 21.433 20 19.5C20 17.567 18.4331 16 16.5 16C14.5669 16 13 17.567 13 19.5C13 21.433 14.5669 23 16.5 23Z" fill="#C0D3FB"/>
<path d="M20 35.5C20 37.433 18.4331 39 16.5 39C14.5669 39 13 37.433 13 35.5C13 33.567 14.5669 32 16.5 32C18.4331 32 20 33.567 20 35.5Z" fill="#C0D3FB"/>
<path d="M16.5 55C18.4331 55 20 53.433 20 51.5C20 49.567 18.4331 48 16.5 48C14.5669 48 13 49.567 13 51.5C13 53.433 14.5669 55 16.5 55Z" fill="#C0D3FB"/>
<path d="M20 67.5C20 69.433 18.4331 71 16.5 71C14.5669 71 13 69.433 13 67.5C13 65.567 14.5669 64 16.5 64C18.4331 64 20 65.567 20 67.5Z" fill="#C0D3FB"/>
<path d="M16.5 87C18.4331 87 20 85.433 20 83.5C20 81.567 18.4331 80 16.5 80C14.5669 80 13 81.567 13 83.5C13 85.433 14.5669 87 16.5 87Z" fill="#C0D3FB"/>
<path d="M37 3.5C37 5.43298 35.4331 7 33.5 7C31.5669 7 30 5.43298 30 3.5C30 1.56702 31.5669 0 33.5 0C35.4331 0 37 1.56702 37 3.5Z" fill="#C0D3FB"/>
<path d="M33.5 23C35.4331 23 37 21.433 37 19.5C37 17.567 35.4331 16 33.5 16C31.5669 16 30 17.567 30 19.5C30 21.433 31.5669 23 33.5 23Z" fill="#C0D3FB"/>
<path d="M37 35.5C37 37.433 35.4331 39 33.5 39C31.5669 39 30 37.433 30 35.5C30 33.567 31.5669 32 33.5 32C35.4331 32 37 33.567 37 35.5Z" fill="#C0D3FB"/>
<path d="M33.5 55C35.4331 55 37 53.433 37 51.5C37 49.567 35.4331 48 33.5 48C31.5669 48 30 49.567 30 51.5C30 53.433 31.5669 55 33.5 55Z" fill="#C0D3FB"/>
<path d="M37 67.5C37 69.433 35.4331 71 33.5 71C31.5669 71 30 69.433 30 67.5C30 65.567 31.5669 64 33.5 64C35.4331 64 37 65.567 37 67.5Z" fill="#C0D3FB"/>
<path d="M33.5 87C35.4331 87 37 85.433 37 83.5C37 81.567 35.4331 80 33.5 80C31.5669 80 30 81.567 30 83.5C30 85.433 31.5669 87 33.5 87Z" fill="#C0D3FB"/>
<path d="M-14 99.5C-14 101.433 -15.5669 103 -17.5 103C-19.4331 103 -21 101.433 -21 99.5C-21 97.567 -19.4331 96 -17.5 96C-15.5669 96 -14 97.567 -14 99.5Z" fill="#C0D3FB"/>
<path d="M-0.5 103C1.43311 103 3 101.433 3 99.5C3 97.567 1.43311 96 -0.5 96C-2.43311 96 -4 97.567 -4 99.5C-4 101.433 -2.43311 103 -0.5 103Z" fill="#C0D3FB"/>
<path d="M20 99.5C20 101.433 18.4331 103 16.5 103C14.5669 103 13 101.433 13 99.5C13 97.567 14.5669 96 16.5 96C18.4331 96 20 97.567 20 99.5Z" fill="#C0D3FB"/>
<path d="M33.5 103C35.4331 103 37 101.433 37 99.5C37 97.567 35.4331 96 33.5 96C31.5669 96 30 97.567 30 99.5C30 101.433 31.5669 103 33.5 103Z" fill="#C0D3FB"/>
<path d="M50.5 7C52.4331 7 54 5.43298 54 3.5C54 1.56702 52.4331 0 50.5 0C48.5669 0 47 1.56702 47 3.5C47 5.43298 48.5669 7 50.5 7Z" fill="#C0D3FB"/>
<path d="M54 19.5C54 21.433 52.4331 23 50.5 23C48.5669 23 47 21.433 47 19.5C47 17.567 48.5669 16 50.5 16C52.4331 16 54 17.567 54 19.5Z" fill="#C0D3FB"/>
<path d="M50.5 39C52.4331 39 54 37.433 54 35.5C54 33.567 52.4331 32 50.5 32C48.5669 32 47 33.567 47 35.5C47 37.433 48.5669 39 50.5 39Z" fill="#C0D3FB"/>
<path d="M54 51.5C54 53.433 52.4331 55 50.5 55C48.5669 55 47 53.433 47 51.5C47 49.567 48.5669 48 50.5 48C52.4331 48 54 49.567 54 51.5Z" fill="#C0D3FB"/>
<path d="M50.5 71C52.4331 71 54 69.433 54 67.5C54 65.567 52.4331 64 50.5 64C48.5669 64 47 65.567 47 67.5C47 69.433 48.5669 71 50.5 71Z" fill="#C0D3FB"/>
<path d="M54 83.5C54 85.433 52.4331 87 50.5 87C48.5669 87 47 85.433 47 83.5C47 81.567 48.5669 80 50.5 80C52.4331 80 54 81.567 54 83.5Z" fill="#C0D3FB"/>
<path d="M67.5 7C69.4331 7 71 5.43298 71 3.5C71 1.56702 69.4331 0 67.5 0C65.5669 0 64 1.56702 64 3.5C64 5.43298 65.5669 7 67.5 7Z" fill="#C0D3FB"/>
<path d="M71 19.5C71 21.433 69.4331 23 67.5 23C65.5669 23 64 21.433 64 19.5C64 17.567 65.5669 16 67.5 16C69.4331 16 71 17.567 71 19.5Z" fill="#C0D3FB"/>
<path d="M67.5 39C69.4331 39 71 37.433 71 35.5C71 33.567 69.4331 32 67.5 32C65.5669 32 64 33.567 64 35.5C64 37.433 65.5669 39 67.5 39Z" fill="#C0D3FB"/>
<path d="M71 51.5C71 53.433 69.4331 55 67.5 55C65.5669 55 64 53.433 64 51.5C64 49.567 65.5669 48 67.5 48C69.4331 48 71 49.567 71 51.5Z" fill="#C0D3FB"/>
<path d="M67.5 71C69.4331 71 71 69.433 71 67.5C71 65.567 69.4331 64 67.5 64C65.5669 64 64 65.567 64 67.5C64 69.433 65.5669 71 67.5 71Z" fill="#C0D3FB"/>
<path d="M71 83.5C71 85.433 69.4331 87 67.5 87C65.5669 87 64 85.433 64 83.5C64 81.567 65.5669 80 67.5 80C69.4331 80 71 81.567 71 83.5Z" fill="#C0D3FB"/>
<path d="M84.5 7C86.4331 7 88 5.43298 88 3.5C88 1.56702 86.4331 0 84.5 0C82.5669 0 81 1.56702 81 3.5C81 5.43298 82.5669 7 84.5 7Z" fill="#C0D3FB"/>
<path d="M88 19.5C88 21.433 86.4331 23 84.5 23C82.5669 23 81 21.433 81 19.5C81 17.567 82.5669 16 84.5 16C86.4331 16 88 17.567 88 19.5Z" fill="#C0D3FB"/>
<path d="M84.5 39C86.4331 39 88 37.433 88 35.5C88 33.567 86.4331 32 84.5 32C82.5669 32 81 33.567 81 35.5C81 37.433 82.5669 39 84.5 39Z" fill="#C0D3FB"/>
<path d="M88 51.5C88 53.433 86.4331 55 84.5 55C82.5669 55 81 53.433 81 51.5C81 49.567 82.5669 48 84.5 48C86.4331 48 88 49.567 88 51.5Z" fill="#C0D3FB"/>
<path d="M84.5 71C86.4331 71 88 69.433 88 67.5C88 65.567 86.4331 64 84.5 64C82.5669 64 81 65.567 81 67.5C81 69.433 82.5669 71 84.5 71Z" fill="#C0D3FB"/>
<path d="M88 83.5C88 85.433 86.4331 87 84.5 87C82.5669 87 81 85.433 81 83.5C81 81.567 82.5669 80 84.5 80C86.4331 80 88 81.567 88 83.5Z" fill="#C0D3FB"/>
<path d="M101.5 7C103.433 7 105 5.43298 105 3.5C105 1.56702 103.433 0 101.5 0C99.5669 0 98 1.56702 98 3.5C98 5.43298 99.5669 7 101.5 7Z" fill="#C0D3FB"/>
<path d="M105 19.5C105 21.433 103.433 23 101.5 23C99.5669 23 98 21.433 98 19.5C98 17.567 99.5669 16 101.5 16C103.433 16 105 17.567 105 19.5Z" fill="#C0D3FB"/>
<path d="M101.5 39C103.433 39 105 37.433 105 35.5C105 33.567 103.433 32 101.5 32C99.5669 32 98 33.567 98 35.5C98 37.433 99.5669 39 101.5 39Z" fill="#C0D3FB"/>
<path d="M105 51.5C105 53.433 103.433 55 101.5 55C99.5669 55 98 53.433 98 51.5C98 49.567 99.5669 48 101.5 48C103.433 48 105 49.567 105 51.5Z" fill="#C0D3FB"/>
<path d="M101.5 71C103.433 71 105 69.433 105 67.5C105 65.567 103.433 64 101.5 64C99.5669 64 98 65.567 98 67.5C98 69.433 99.5669 71 101.5 71Z" fill="#C0D3FB"/>
<path d="M105 83.5C105 85.433 103.433 87 101.5 87C99.5669 87 98 85.433 98 83.5C98 81.567 99.5669 80 101.5 80C103.433 80 105 81.567 105 83.5Z" fill="#C0D3FB"/>
<path d="M54 99.5C54 101.433 52.4331 103 50.5 103C48.5669 103 47 101.433 47 99.5C47 97.567 48.5669 96 50.5 96C52.4331 96 54 97.567 54 99.5Z" fill="#C0D3FB"/>
<path d="M67.5 103C69.4331 103 71 101.433 71 99.5C71 97.567 69.4331 96 67.5 96C65.5669 96 64 97.567 64 99.5C64 101.433 65.5669 103 67.5 103Z" fill="#C0D3FB"/>
<path d="M88 99.5C88 101.433 86.4331 103 84.5 103C82.5669 103 81 101.433 81 99.5C81 97.567 82.5669 96 84.5 96C86.4331 96 88 97.567 88 99.5Z" fill="#C0D3FB"/>
<path d="M101.5 103C103.433 103 105 101.433 105 99.5C105 97.567 103.433 96 101.5 96C99.5669 96 98 97.567 98 99.5C98 101.433 99.5669 103 101.5 103Z" fill="#C0D3FB"/>
<path d="M-14 115.5C-14 117.433 -15.5669 119 -17.5 119C-19.4331 119 -21 117.433 -21 115.5C-21 113.567 -19.4331 112 -17.5 112C-15.5669 112 -14 113.567 -14 115.5Z" fill="#C0D3FB"/>
<path d="M-14 131.5C-14 133.433 -15.5669 135 -17.5 135C-19.4331 135 -21 133.433 -21 131.5C-21 129.567 -19.4331 128 -17.5 128C-15.5669 128 -14 129.567 -14 131.5Z" fill="#C0D3FB"/>
<path d="M-17.5 151C-15.5669 151 -14 149.433 -14 147.5C-14 145.567 -15.5669 144 -17.5 144C-19.4331 144 -21 145.567 -21 147.5C-21 149.433 -19.4331 151 -17.5 151Z" fill="#C0D3FB"/>
<path d="M-14 163.5C-14 165.433 -15.5669 167 -17.5 167C-19.4331 167 -21 165.433 -21 163.5C-21 161.567 -19.4331 160 -17.5 160C-15.5669 160 -14 161.567 -14 163.5Z" fill="#C0D3FB"/>
<path d="M-17.5 183C-15.5669 183 -14 181.433 -14 179.5C-14 177.567 -15.5669 176 -17.5 176C-19.4331 176 -21 177.567 -21 179.5C-21 181.433 -19.4331 183 -17.5 183Z" fill="#C0D3FB"/>
<path d="M-14 195.5C-14 197.433 -15.5669 199 -17.5 199C-19.4331 199 -21 197.433 -21 195.5C-21 193.567 -19.4331 192 -17.5 192C-15.5669 192 -14 193.567 -14 195.5Z" fill="#C0D3FB"/>
<path d="M-0.5 119C1.43311 119 3 117.433 3 115.5C3 113.567 1.43311 112 -0.5 112C-2.43311 112 -4 113.567 -4 115.5C-4 117.433 -2.43311 119 -0.5 119Z" fill="#C0D3FB"/>
<path d="M3 131.5C3 133.433 1.43311 135 -0.5 135C-2.43311 135 -4 133.433 -4 131.5C-4 129.567 -2.43311 128 -0.5 128C1.43311 128 3 129.567 3 131.5Z" fill="#C0D3FB"/>
<path d="M-0.5 151C1.43311 151 3 149.433 3 147.5C3 145.567 1.43311 144 -0.5 144C-2.43311 144 -4 145.567 -4 147.5C-4 149.433 -2.43311 151 -0.5 151Z" fill="#C0D3FB"/>
<path d="M3 163.5C3 165.433 1.43311 167 -0.5 167C-2.43311 167 -4 165.433 -4 163.5C-4 161.567 -2.43311 160 -0.5 160C1.43311 160 3 161.567 3 163.5Z" fill="#C0D3FB"/>
<path d="M-0.5 183C1.43311 183 3 181.433 3 179.5C3 177.567 1.43311 176 -0.5 176C-2.43311 176 -4 177.567 -4 179.5C-4 181.433 -2.43311 183 -0.5 183Z" fill="#C0D3FB"/>
<path d="M3 195.5C3 197.433 1.43311 199 -0.5 199C-2.43311 199 -4 197.433 -4 195.5C-4 193.567 -2.43311 192 -0.5 192C1.43311 192 3 193.567 3 195.5Z" fill="#C0D3FB"/>
<path d="M16.5 119C18.4331 119 20 117.433 20 115.5C20 113.567 18.4331 112 16.5 112C14.5669 112 13 113.567 13 115.5C13 117.433 14.5669 119 16.5 119Z" fill="#C0D3FB"/>
<path d="M20 131.5C20 133.433 18.4331 135 16.5 135C14.5669 135 13 133.433 13 131.5C13 129.567 14.5669 128 16.5 128C18.4331 128 20 129.567 20 131.5Z" fill="#C0D3FB"/>
<path d="M16.5 151C18.4331 151 20 149.433 20 147.5C20 145.567 18.4331 144 16.5 144C14.5669 144 13 145.567 13 147.5C13 149.433 14.5669 151 16.5 151Z" fill="#C0D3FB"/>
<path d="M20 163.5C20 165.433 18.4331 167 16.5 167C14.5669 167 13 165.433 13 163.5C13 161.567 14.5669 160 16.5 160C18.4331 160 20 161.567 20 163.5Z" fill="#C0D3FB"/>
<path d="M16.5 183C18.4331 183 20 181.433 20 179.5C20 177.567 18.4331 176 16.5 176C14.5669 176 13 177.567 13 179.5C13 181.433 14.5669 183 16.5 183Z" fill="#C0D3FB"/>
<path d="M20 195.5C20 197.433 18.4331 199 16.5 199C14.5669 199 13 197.433 13 195.5C13 193.567 14.5669 192 16.5 192C18.4331 192 20 193.567 20 195.5Z" fill="#C0D3FB"/>
<path d="M33.5 119C35.4331 119 37 117.433 37 115.5C37 113.567 35.4331 112 33.5 112C31.5669 112 30 113.567 30 115.5C30 117.433 31.5669 119 33.5 119Z" fill="#C0D3FB"/>
<path d="M37 131.5C37 133.433 35.4331 135 33.5 135C31.5669 135 30 133.433 30 131.5C30 129.567 31.5669 128 33.5 128C35.4331 128 37 129.567 37 131.5Z" fill="#C0D3FB"/>
<path d="M33.5 151C35.4331 151 37 149.433 37 147.5C37 145.567 35.4331 144 33.5 144C31.5669 144 30 145.567 30 147.5C30 149.433 31.5669 151 33.5 151Z" fill="#C0D3FB"/>
<path d="M37 163.5C37 165.433 35.4331 167 33.5 167C31.5669 167 30 165.433 30 163.5C30 161.567 31.5669 160 33.5 160C35.4331 160 37 161.567 37 163.5Z" fill="#C0D3FB"/>
<path d="M33.5 183C35.4331 183 37 181.433 37 179.5C37 177.567 35.4331 176 33.5 176C31.5669 176 30 177.567 30 179.5C30 181.433 31.5669 183 33.5 183Z" fill="#C0D3FB"/>
<path d="M37 195.5C37 197.433 35.4331 199 33.5 199C31.5669 199 30 197.433 30 195.5C30 193.567 31.5669 192 33.5 192C35.4331 192 37 193.567 37 195.5Z" fill="#C0D3FB"/>
<path d="M-17.5 215C-15.5669 215 -14 213.433 -14 211.5C-14 209.567 -15.5669 208 -17.5 208C-19.4331 208 -21 209.567 -21 211.5C-21 213.433 -19.4331 215 -17.5 215Z" fill="#C0D3FB"/>
<path d="M3 211.5C3 213.433 1.43311 215 -0.5 215C-2.43311 215 -4 213.433 -4 211.5C-4 209.567 -2.43311 208 -0.5 208C1.43311 208 3 209.567 3 211.5Z" fill="#C0D3FB"/>
<path d="M16.5 215C18.4331 215 20 213.433 20 211.5C20 209.567 18.4331 208 16.5 208C14.5669 208 13 209.567 13 211.5C13 213.433 14.5669 215 16.5 215Z" fill="#C0D3FB"/>
<path d="M37 211.5C37 213.433 35.4331 215 33.5 215C31.5669 215 30 213.433 30 211.5C30 209.567 31.5669 208 33.5 208C35.4331 208 37 209.567 37 211.5Z" fill="#C0D3FB"/>
<path d="M54 115.5C54 117.433 52.4331 119 50.5 119C48.5669 119 47 117.433 47 115.5C47 113.567 48.5669 112 50.5 112C52.4331 112 54 113.567 54 115.5Z" fill="#C0D3FB"/>
<path d="M50.5 135C52.4331 135 54 133.433 54 131.5C54 129.567 52.4331 128 50.5 128C48.5669 128 47 129.567 47 131.5C47 133.433 48.5669 135 50.5 135Z" fill="#C0D3FB"/>
<path d="M54 147.5C54 149.433 52.4331 151 50.5 151C48.5669 151 47 149.433 47 147.5C47 145.567 48.5669 144 50.5 144C52.4331 144 54 145.567 54 147.5Z" fill="#C0D3FB"/>
<path d="M50.5 167C52.4331 167 54 165.433 54 163.5C54 161.567 52.4331 160 50.5 160C48.5669 160 47 161.567 47 163.5C47 165.433 48.5669 167 50.5 167Z" fill="#C0D3FB"/>
<path d="M54 179.5C54 181.433 52.4331 183 50.5 183C48.5669 183 47 181.433 47 179.5C47 177.567 48.5669 176 50.5 176C52.4331 176 54 177.567 54 179.5Z" fill="#C0D3FB"/>
<path d="M50.5 199C52.4331 199 54 197.433 54 195.5C54 193.567 52.4331 192 50.5 192C48.5669 192 47 193.567 47 195.5C47 197.433 48.5669 199 50.5 199Z" fill="#C0D3FB"/>
<path d="M71 115.5C71 117.433 69.4331 119 67.5 119C65.5669 119 64 117.433 64 115.5C64 113.567 65.5669 112 67.5 112C69.4331 112 71 113.567 71 115.5Z" fill="#C0D3FB"/>
<path d="M67.5 135C69.4331 135 71 133.433 71 131.5C71 129.567 69.4331 128 67.5 128C65.5669 128 64 129.567 64 131.5C64 133.433 65.5669 135 67.5 135Z" fill="#C0D3FB"/>
<path d="M71 147.5C71 149.433 69.4331 151 67.5 151C65.5669 151 64 149.433 64 147.5C64 145.567 65.5669 144 67.5 144C69.4331 144 71 145.567 71 147.5Z" fill="#C0D3FB"/>
<path d="M67.5 167C69.4331 167 71 165.433 71 163.5C71 161.567 69.4331 160 67.5 160C65.5669 160 64 161.567 64 163.5C64 165.433 65.5669 167 67.5 167Z" fill="#C0D3FB"/>
<path d="M71 179.5C71 181.433 69.4331 183 67.5 183C65.5669 183 64 181.433 64 179.5C64 177.567 65.5669 176 67.5 176C69.4331 176 71 177.567 71 179.5Z" fill="#C0D3FB"/>
<path d="M67.5 199C69.4331 199 71 197.433 71 195.5C71 193.567 69.4331 192 67.5 192C65.5669 192 64 193.567 64 195.5C64 197.433 65.5669 199 67.5 199Z" fill="#C0D3FB"/>
<path d="M88 115.5C88 117.433 86.4331 119 84.5 119C82.5669 119 81 117.433 81 115.5C81 113.567 82.5669 112 84.5 112C86.4331 112 88 113.567 88 115.5Z" fill="#C0D3FB"/>
<path d="M84.5 135C86.4331 135 88 133.433 88 131.5C88 129.567 86.4331 128 84.5 128C82.5669 128 81 129.567 81 131.5C81 133.433 82.5669 135 84.5 135Z" fill="#C0D3FB"/>
<path d="M88 147.5C88 149.433 86.4331 151 84.5 151C82.5669 151 81 149.433 81 147.5C81 145.567 82.5669 144 84.5 144C86.4331 144 88 145.567 88 147.5Z" fill="#C0D3FB"/>
<path d="M84.5 167C86.4331 167 88 165.433 88 163.5C88 161.567 86.4331 160 84.5 160C82.5669 160 81 161.567 81 163.5C81 165.433 82.5669 167 84.5 167Z" fill="#C0D3FB"/>
<path d="M88 179.5C88 181.433 86.4331 183 84.5 183C82.5669 183 81 181.433 81 179.5C81 177.567 82.5669 176 84.5 176C86.4331 176 88 177.567 88 179.5Z" fill="#C0D3FB"/>
<path d="M84.5 199C86.4331 199 88 197.433 88 195.5C88 193.567 86.4331 192 84.5 192C82.5669 192 81 193.567 81 195.5C81 197.433 82.5669 199 84.5 199Z" fill="#C0D3FB"/>
<path d="M105 115.5C105 117.433 103.433 119 101.5 119C99.5669 119 98 117.433 98 115.5C98 113.567 99.5669 112 101.5 112C103.433 112 105 113.567 105 115.5Z" fill="#C0D3FB"/>
<path d="M101.5 135C103.433 135 105 133.433 105 131.5C105 129.567 103.433 128 101.5 128C99.5669 128 98 129.567 98 131.5C98 133.433 99.5669 135 101.5 135Z" fill="#C0D3FB"/>
<path d="M105 147.5C105 149.433 103.433 151 101.5 151C99.5669 151 98 149.433 98 147.5C98 145.567 99.5669 144 101.5 144C103.433 144 105 145.567 105 147.5Z" fill="#C0D3FB"/>
<path d="M101.5 167C103.433 167 105 165.433 105 163.5C105 161.567 103.433 160 101.5 160C99.5669 160 98 161.567 98 163.5C98 165.433 99.5669 167 101.5 167Z" fill="#C0D3FB"/>
<path d="M105 179.5C105 181.433 103.433 183 101.5 183C99.5669 183 98 181.433 98 179.5C98 177.567 99.5669 176 101.5 176C103.433 176 105 177.567 105 179.5Z" fill="#C0D3FB"/>
<path d="M101.5 199C103.433 199 105 197.433 105 195.5C105 193.567 103.433 192 101.5 192C99.5669 192 98 193.567 98 195.5C98 197.433 99.5669 199 101.5 199Z" fill="#C0D3FB"/>
<path d="M50.5 215C52.4331 215 54 213.433 54 211.5C54 209.567 52.4331 208 50.5 208C48.5669 208 47 209.567 47 211.5C47 213.433 48.5669 215 50.5 215Z" fill="#C0D3FB"/>
<path d="M71 211.5C71 213.433 69.4331 215 67.5 215C65.5669 215 64 213.433 64 211.5C64 209.567 65.5669 208 67.5 208C69.4331 208 71 209.567 71 211.5Z" fill="#C0D3FB"/>
<path d="M84.5 215C86.4331 215 88 213.433 88 211.5C88 209.567 86.4331 208 84.5 208C82.5669 208 81 209.567 81 211.5C81 213.433 82.5669 215 84.5 215Z" fill="#C0D3FB"/>
<path d="M105 211.5C105 213.433 103.433 215 101.5 215C99.5669 215 98 213.433 98 211.5C98 209.567 99.5669 208 101.5 208C103.433 208 105 209.567 105 211.5Z" fill="#C0D3FB"/>
<path d="M-14 227.5C-14 229.433 -15.5669 231 -17.5 231C-19.4331 231 -21 229.433 -21 227.5C-21 225.567 -19.4331 224 -17.5 224C-15.5669 224 -14 225.567 -14 227.5Z" fill="#C0D3FB"/>
<path d="M-14 243.5C-14 245.433 -15.5669 247 -17.5 247C-19.4331 247 -21 245.433 -21 243.5C-21 241.567 -19.4331 240 -17.5 240C-15.5669 240 -14 241.567 -14 243.5Z" fill="#C0D3FB"/>
<path d="M-17.5 263C-15.5669 263 -14 261.433 -14 259.5C-14 257.567 -15.5669 256 -17.5 256C-19.4331 256 -21 257.567 -21 259.5C-21 261.433 -19.4331 263 -17.5 263Z" fill="#C0D3FB"/>
<path d="M-14 275.5C-14 277.433 -15.5669 279 -17.5 279C-19.4331 279 -21 277.433 -21 275.5C-21 273.567 -19.4331 272 -17.5 272C-15.5669 272 -14 273.567 -14 275.5Z" fill="#C0D3FB"/>
<path d="M-17.5 295C-15.5669 295 -14 293.433 -14 291.5C-14 289.567 -15.5669 288 -17.5 288C-19.4331 288 -21 289.567 -21 291.5C-21 293.433 -19.4331 295 -17.5 295Z" fill="#C0D3FB"/>
<path d="M-14 307.5C-14 309.433 -15.5669 311 -17.5 311C-19.4331 311 -21 309.433 -21 307.5C-21 305.567 -19.4331 304 -17.5 304C-15.5669 304 -14 305.567 -14 307.5Z" fill="#C0D3FB"/>
<path d="M-0.5 231C1.43311 231 3 229.433 3 227.5C3 225.567 1.43311 224 -0.5 224C-2.43311 224 -4 225.567 -4 227.5C-4 229.433 -2.43311 231 -0.5 231Z" fill="#C0D3FB"/>
<path d="M3 243.5C3 245.433 1.43311 247 -0.5 247C-2.43311 247 -4 245.433 -4 243.5C-4 241.567 -2.43311 240 -0.5 240C1.43311 240 3 241.567 3 243.5Z" fill="#C0D3FB"/>
<path d="M-0.5 263C1.43311 263 3 261.433 3 259.5C3 257.567 1.43311 256 -0.5 256C-2.43311 256 -4 257.567 -4 259.5C-4 261.433 -2.43311 263 -0.5 263Z" fill="#C0D3FB"/>
<path d="M3 275.5C3 277.433 1.43311 279 -0.5 279C-2.43311 279 -4 277.433 -4 275.5C-4 273.567 -2.43311 272 -0.5 272C1.43311 272 3 273.567 3 275.5Z" fill="#C0D3FB"/>
<path d="M-0.5 295C1.43311 295 3 293.433 3 291.5C3 289.567 1.43311 288 -0.5 288C-2.43311 288 -4 289.567 -4 291.5C-4 293.433 -2.43311 295 -0.5 295Z" fill="#C0D3FB"/>
<path d="M3 307.5C3 309.433 1.43311 311 -0.5 311C-2.43311 311 -4 309.433 -4 307.5C-4 305.567 -2.43311 304 -0.5 304C1.43311 304 3 305.567 3 307.5Z" fill="#C0D3FB"/>
<path d="M16.5 231C18.4331 231 20 229.433 20 227.5C20 225.567 18.4331 224 16.5 224C14.5669 224 13 225.567 13 227.5C13 229.433 14.5669 231 16.5 231Z" fill="#C0D3FB"/>
<path d="M20 243.5C20 245.433 18.4331 247 16.5 247C14.5669 247 13 245.433 13 243.5C13 241.567 14.5669 240 16.5 240C18.4331 240 20 241.567 20 243.5Z" fill="#C0D3FB"/>
<path d="M16.5 263C18.4331 263 20 261.433 20 259.5C20 257.567 18.4331 256 16.5 256C14.5669 256 13 257.567 13 259.5C13 261.433 14.5669 263 16.5 263Z" fill="#C0D3FB"/>
<path d="M20 275.5C20 277.433 18.4331 279 16.5 279C14.5669 279 13 277.433 13 275.5C13 273.567 14.5669 272 16.5 272C18.4331 272 20 273.567 20 275.5Z" fill="#C0D3FB"/>
<path d="M16.5 295C18.4331 295 20 293.433 20 291.5C20 289.567 18.4331 288 16.5 288C14.5669 288 13 289.567 13 291.5C13 293.433 14.5669 295 16.5 295Z" fill="#C0D3FB"/>
<path d="M20 307.5C20 309.433 18.4331 311 16.5 311C14.5669 311 13 309.433 13 307.5C13 305.567 14.5669 304 16.5 304C18.4331 304 20 305.567 20 307.5Z" fill="#C0D3FB"/>
<path d="M33.5 231C35.4331 231 37 229.433 37 227.5C37 225.567 35.4331 224 33.5 224C31.5669 224 30 225.567 30 227.5C30 229.433 31.5669 231 33.5 231Z" fill="#C0D3FB"/>
<path d="M37 243.5C37 245.433 35.4331 247 33.5 247C31.5669 247 30 245.433 30 243.5C30 241.567 31.5669 240 33.5 240C35.4331 240 37 241.567 37 243.5Z" fill="#C0D3FB"/>
<path d="M33.5 263C35.4331 263 37 261.433 37 259.5C37 257.567 35.4331 256 33.5 256C31.5669 256 30 257.567 30 259.5C30 261.433 31.5669 263 33.5 263Z" fill="#C0D3FB"/>
<path d="M37 275.5C37 277.433 35.4331 279 33.5 279C31.5669 279 30 277.433 30 275.5C30 273.567 31.5669 272 33.5 272C35.4331 272 37 273.567 37 275.5Z" fill="#C0D3FB"/>
<path d="M33.5 295C35.4331 295 37 293.433 37 291.5C37 289.567 35.4331 288 33.5 288C31.5669 288 30 289.567 30 291.5C30 293.433 31.5669 295 33.5 295Z" fill="#C0D3FB"/>
<path d="M37 307.5C37 309.433 35.4331 311 33.5 311C31.5669 311 30 309.433 30 307.5C30 305.567 31.5669 304 33.5 304C35.4331 304 37 305.567 37 307.5Z" fill="#C0D3FB"/>
<path d="M-17.5 327C-15.5669 327 -14 325.433 -14 323.5C-14 321.567 -15.5669 320 -17.5 320C-19.4331 320 -21 321.567 -21 323.5C-21 325.433 -19.4331 327 -17.5 327Z" fill="#C0D3FB"/>
<path d="M3 323.5C3 325.433 1.43311 327 -0.5 327C-2.43311 327 -4 325.433 -4 323.5C-4 321.567 -2.43311 320 -0.5 320C1.43311 320 3 321.567 3 323.5Z" fill="#C0D3FB"/>
<path d="M16.5 327C18.4331 327 20 325.433 20 323.5C20 321.567 18.4331 320 16.5 320C14.5669 320 13 321.567 13 323.5C13 325.433 14.5669 327 16.5 327Z" fill="#C0D3FB"/>
<path d="M37 323.5C37 325.433 35.4331 327 33.5 327C31.5669 327 30 325.433 30 323.5C30 321.567 31.5669 320 33.5 320C35.4331 320 37 321.567 37 323.5Z" fill="#C0D3FB"/>
<path d="M54 227.5C54 229.433 52.4331 231 50.5 231C48.5669 231 47 229.433 47 227.5C47 225.567 48.5669 224 50.5 224C52.4331 224 54 225.567 54 227.5Z" fill="#C0D3FB"/>
<path d="M50.5 247C52.4331 247 54 245.433 54 243.5C54 241.567 52.4331 240 50.5 240C48.5669 240 47 241.567 47 243.5C47 245.433 48.5669 247 50.5 247Z" fill="#C0D3FB"/>
<path d="M54 259.5C54 261.433 52.4331 263 50.5 263C48.5669 263 47 261.433 47 259.5C47 257.567 48.5669 256 50.5 256C52.4331 256 54 257.567 54 259.5Z" fill="#C0D3FB"/>
<path d="M50.5 279C52.4331 279 54 277.433 54 275.5C54 273.567 52.4331 272 50.5 272C48.5669 272 47 273.567 47 275.5C47 277.433 48.5669 279 50.5 279Z" fill="#C0D3FB"/>
<path d="M54 291.5C54 293.433 52.4331 295 50.5 295C48.5669 295 47 293.433 47 291.5C47 289.567 48.5669 288 50.5 288C52.4331 288 54 289.567 54 291.5Z" fill="#C0D3FB"/>
<path d="M50.5 311C52.4331 311 54 309.433 54 307.5C54 305.567 52.4331 304 50.5 304C48.5669 304 47 305.567 47 307.5C47 309.433 48.5669 311 50.5 311Z" fill="#C0D3FB"/>
<path d="M71 227.5C71 229.433 69.4331 231 67.5 231C65.5669 231 64 229.433 64 227.5C64 225.567 65.5669 224 67.5 224C69.4331 224 71 225.567 71 227.5Z" fill="#C0D3FB"/>
<path d="M67.5 247C69.4331 247 71 245.433 71 243.5C71 241.567 69.4331 240 67.5 240C65.5669 240 64 241.567 64 243.5C64 245.433 65.5669 247 67.5 247Z" fill="#C0D3FB"/>
<path d="M71 259.5C71 261.433 69.4331 263 67.5 263C65.5669 263 64 261.433 64 259.5C64 257.567 65.5669 256 67.5 256C69.4331 256 71 257.567 71 259.5Z" fill="#C0D3FB"/>
<path d="M67.5 279C69.4331 279 71 277.433 71 275.5C71 273.567 69.4331 272 67.5 272C65.5669 272 64 273.567 64 275.5C64 277.433 65.5669 279 67.5 279Z" fill="#C0D3FB"/>
<path d="M71 291.5C71 293.433 69.4331 295 67.5 295C65.5669 295 64 293.433 64 291.5C64 289.567 65.5669 288 67.5 288C69.4331 288 71 289.567 71 291.5Z" fill="#C0D3FB"/>
<path d="M67.5 311C69.4331 311 71 309.433 71 307.5C71 305.567 69.4331 304 67.5 304C65.5669 304 64 305.567 64 307.5C64 309.433 65.5669 311 67.5 311Z" fill="#C0D3FB"/>
<path d="M88 227.5C88 229.433 86.4331 231 84.5 231C82.5669 231 81 229.433 81 227.5C81 225.567 82.5669 224 84.5 224C86.4331 224 88 225.567 88 227.5Z" fill="#C0D3FB"/>
<path d="M84.5 247C86.4331 247 88 245.433 88 243.5C88 241.567 86.4331 240 84.5 240C82.5669 240 81 241.567 81 243.5C81 245.433 82.5669 247 84.5 247Z" fill="#C0D3FB"/>
<path d="M88 259.5C88 261.433 86.4331 263 84.5 263C82.5669 263 81 261.433 81 259.5C81 257.567 82.5669 256 84.5 256C86.4331 256 88 257.567 88 259.5Z" fill="#C0D3FB"/>
<path d="M84.5 279C86.4331 279 88 277.433 88 275.5C88 273.567 86.4331 272 84.5 272C82.5669 272 81 273.567 81 275.5C81 277.433 82.5669 279 84.5 279Z" fill="#C0D3FB"/>
<path d="M88 291.5C88 293.433 86.4331 295 84.5 295C82.5669 295 81 293.433 81 291.5C81 289.567 82.5669 288 84.5 288C86.4331 288 88 289.567 88 291.5Z" fill="#C0D3FB"/>
<path d="M84.5 311C86.4331 311 88 309.433 88 307.5C88 305.567 86.4331 304 84.5 304C82.5669 304 81 305.567 81 307.5C81 309.433 82.5669 311 84.5 311Z" fill="#C0D3FB"/>
<path d="M105 227.5C105 229.433 103.433 231 101.5 231C99.5669 231 98 229.433 98 227.5C98 225.567 99.5669 224 101.5 224C103.433 224 105 225.567 105 227.5Z" fill="#C0D3FB"/>
<path d="M101.5 247C103.433 247 105 245.433 105 243.5C105 241.567 103.433 240 101.5 240C99.5669 240 98 241.567 98 243.5C98 245.433 99.5669 247 101.5 247Z" fill="#C0D3FB"/>
<path d="M105 259.5C105 261.433 103.433 263 101.5 263C99.5669 263 98 261.433 98 259.5C98 257.567 99.5669 256 101.5 256C103.433 256 105 257.567 105 259.5Z" fill="#C0D3FB"/>
<path d="M101.5 279C103.433 279 105 277.433 105 275.5C105 273.567 103.433 272 101.5 272C99.5669 272 98 273.567 98 275.5C98 277.433 99.5669 279 101.5 279Z" fill="#C0D3FB"/>
<path d="M105 291.5C105 293.433 103.433 295 101.5 295C99.5669 295 98 293.433 98 291.5C98 289.567 99.5669 288 101.5 288C103.433 288 105 289.567 105 291.5Z" fill="#C0D3FB"/>
<path d="M101.5 311C103.433 311 105 309.433 105 307.5C105 305.567 103.433 304 101.5 304C99.5669 304 98 305.567 98 307.5C98 309.433 99.5669 311 101.5 311Z" fill="#C0D3FB"/>
<path d="M50.5 327C52.4331 327 54 325.433 54 323.5C54 321.567 52.4331 320 50.5 320C48.5669 320 47 321.567 47 323.5C47 325.433 48.5669 327 50.5 327Z" fill="#C0D3FB"/>
<path d="M71 323.5C71 325.433 69.4331 327 67.5 327C65.5669 327 64 325.433 64 323.5C64 321.567 65.5669 320 67.5 320C69.4331 320 71 321.567 71 323.5Z" fill="#C0D3FB"/>
<path d="M84.5 327C86.4331 327 88 325.433 88 323.5C88 321.567 86.4331 320 84.5 320C82.5669 320 81 321.567 81 323.5C81 325.433 82.5669 327 84.5 327Z" fill="#C0D3FB"/>
<path d="M105 323.5C105 325.433 103.433 327 101.5 327C99.5669 327 98 325.433 98 323.5C98 321.567 99.5669 320 101.5 320C103.433 320 105 321.567 105 323.5Z" fill="#C0D3FB"/>
</svg>
